<?xml version="1.0" encoding="iso-8859-1"?>
<!-- Generator: Adobe Illustrator 19.0.0, SVG Export Plug-In . SVG Version: 6.00 Build 0)  -->
<svg version="1.1" id="Capa_1" xmlns="http://www.w3.org/2000/svg" xmlns:xlink="http://www.w3.org/1999/xlink" x="0px" y="0px"
	 viewBox="0 0 64.954 64.954" style="enable-background:new 0 0 64.954 64.954;" xml:space="preserve">
<g>
	<path d="M63.591,10.201l-8.835-8.833C53.877,0.487,52.707,0.001,51.462,0c-0.002,0-0.003,0-0.004,0
		c-1.243,0-2.412,0.483-3.293,1.363L4.287,45.243c-0.484,0.409-0.85,0.965-0.998,1.63L0.072,61.301
		c-0.223,1.002,0.081,2.049,0.807,2.774C1.447,64.644,2.213,64.954,3,64.954c0.217,0,0.436-0.023,0.653-0.072l14.429-3.217
		c0.669-0.149,1.227-0.519,1.636-1.006l43.873-43.872C65.407,14.971,65.407,12.017,63.591,10.201z M42.672,15.342l6.939,6.938
		l-27.02,27.021l-6.938-6.938L42.672,15.342z M8.947,49.068l2.463-2.463l6.938,6.938l-2.465,2.465l-8.927,1.99L8.947,49.068z
		 M53.854,18.038l-6.939-6.939l4.544-4.543l6.94,6.938L53.854,18.038z"/>
</g>
</svg>
