<?xml version="1.0" encoding="iso-8859-1"?>
<!-- Generator: Adobe Illustrator 18.0.0, SVG Export Plug-In . SVG Version: 6.00 Build 0)  -->
<!DOCTYPE svg PUBLIC "-//W3C//DTD SVG 1.1//EN" "http://www.w3.org/Graphics/SVG/1.1/DTD/svg11.dtd">
<svg version="1.1" id="Capa_1" xmlns="http://www.w3.org/2000/svg" xmlns:xlink="http://www.w3.org/1999/xlink" x="0px" y="0px"
	 viewBox="0 0 297 297" style="enable-background:new 0 0 297 297;" xml:space="preserve">
<g>
	<path d="M283.027,23.396H134.578C123.995,9.206,107.083,0,88.06,0S52.126,9.206,41.542,23.396H13.973
		c-5.383,0-9.748,4.365-9.748,9.748v254.107c0,5.383,4.365,9.748,9.748,9.748h269.054c5.383,0,9.748-4.365,9.748-9.748V33.144
		C292.776,27.761,288.411,23.396,283.027,23.396z M273.279,150.567c-6.966,0.218-13.675,0.692-20.127,1.405L228.63,42.893h44.649
		V150.567z M175.378,58.94l-2.221-16.048h35.488l25.185,112.031c-10.898,2.15-20.971,4.994-30.278,8.361l-13.427-53.706
		c-0.683-2.73-2.512-5.033-5.019-6.315c-2.507-1.282-5.446-1.416-8.059-0.372l-62.861,25.144
		c11.152-11.895,23.735-28.97,29.154-49.492l25.634-9.077C173.338,67.921,176.013,63.524,175.378,58.94z M76.479,277.503
		L62.981,169.518l110.94-44.377l11.446,45.786c-27.353,13.254-46.683,30.944-59.862,46.918
		c-20.145,24.416-29.459,48.57-32.981,59.658H76.479z M153.476,42.893l1.501,10.848l-8.941,3.166
		c-0.09-4.838-0.77-9.532-1.981-14.014H153.476z M88.06,19.497c21.232,0,38.506,17.274,38.506,38.506
		c0,31.984-27.127,58.36-38.848,68.261c-11.69-8.955-38.164-33.117-38.164-68.261C49.554,36.771,66.828,19.497,88.06,19.497z
		 M23.721,42.893h8.345c-1.302,4.821-2.009,9.883-2.009,15.11c0,13.914,3.17,26.333,7.959,37.156l-14.295,5.062V42.893z
		 M47.717,112.407c10.25,14.889,22.489,25.181,29.538,30.402l-53.535,21.414v-43.319L47.717,112.407z M23.721,185.222l20.547-8.219
		l12.562,100.5H23.721V185.222z M113.152,277.503c4.092-10.983,12.363-29.035,27.392-47.25
		c31.421-38.084,76.067-58.317,132.735-60.196v107.445H113.152z"/>
	<path d="M88.06,83.836c14.245,0,25.833-11.589,25.833-25.833S102.305,32.17,88.06,32.17S62.227,43.758,62.227,58.003
		S73.816,83.836,88.06,83.836z M88.06,51.666c3.494,0,6.336,2.843,6.336,6.336s-2.843,6.336-6.336,6.336
		c-3.494,0-6.336-2.843-6.336-6.336S84.566,51.666,88.06,51.666z"/>
</g>
<g>
</g>
<g>
</g>
<g>
</g>
<g>
</g>
<g>
</g>
<g>
</g>
<g>
</g>
<g>
</g>
<g>
</g>
<g>
</g>
<g>
</g>
<g>
</g>
<g>
</g>
<g>
</g>
<g>
</g>
</svg>
