<svg xmlns="http://www.w3.org/2000/svg" viewBox="0 0 20 16">
  <g id="Group_11" data-name="Group 11" transform="translate(-965 -557)">
    <g id="Polygon_17" data-name="Polygon 17" transform="translate(965 557)" fill="#fff953">
      <path d="M7.456,4.07a3,3,0,0,1,5.088,0l4.587,7.34A3,3,0,0,1,14.587,16H5.413a3,3,0,0,1-2.544-4.59Z" stroke="none"/>
      <path d="M 9.999999046325684 3.660384178161621 C 9.295538902282715 3.660384178161621 8.677369117736816 4.00300407409668 8.304009437561035 4.600394248962402 L 3.71674919128418 11.94000434875488 C 3.325759887695313 12.56559371948242 3.305839538574219 13.324294090271 3.663459777832031 13.96954345703125 C 4.021088600158691 14.61478424072266 4.675019264221191 15.00000381469727 5.412738800048828 15.00000381469727 L 14.58725929260254 15.00000381469727 C 15.32497882843018 15.00000381469727 15.97891902923584 14.61478424072266 16.33653831481934 13.96954345703125 C 16.69416809082031 13.324294090271 16.67424964904785 12.56559371948242 16.28324890136719 11.94000434875488 L 11.69599914550781 4.600394248962402 C 11.32262897491455 4.00300407409668 10.70445919036865 3.660384178161621 9.999999046325684 3.660384178161621 M 10 2.660386085510254 C 10.97824668884277 2.660386085510254 11.95649433135986 3.130389213562012 12.54399871826172 4.070393562316895 L 17.13124847412109 11.41000366210938 C 18.38008880615234 13.40814399719238 16.94356918334961 16.00000381469727 14.58725929260254 16.00000381469727 L 5.412738800048828 16.00000381469727 C 3.056438446044922 16.00000381469727 1.619909286499023 13.40814399719238 2.868749618530273 11.41000366210938 L 7.456008911132813 4.070393562316895 C 8.043509483337402 3.130389213562012 9.021754264831543 2.660386085510254 10 2.660386085510254 Z" stroke="none" fill="rgba(168,168,168,0.17)"/>
    </g>
    <text id="_" data-name="!" transform="translate(975 570)" fill="#d8d353" font-size="9" font-family="SegoeUI-Bold, Segoe UI" font-weight="700"><tspan x="-1.472" y="0">!</tspan></text>
  </g>
</svg>
