<svg xmlns="http://www.w3.org/2000/svg" xmlns:xlink="http://www.w3.org/1999/xlink" width="24" height="26" viewBox="0 0 24 26">
  <defs>
    <clipPath id="clip-path">
      <rect width="24" height="26" fill="none"/>
    </clipPath>
  </defs>
  <g id="Icon_Fingerprint_Filled" data-name="Icon / Fingerprint / Filled" opacity="0.3" clip-path="url(#clip-path)">
    <rect id="Box" width="24" height="24" fill="none"/>
    <path id="Trazado_1991" data-name="Trazado 1991" d="M1075.722-67.3a.537.537,0,0,1-.26-.066,13.245,13.245,0,0,0-6.288-1.543,13.241,13.241,0,0,0-6.288,1.543.584.584,0,0,1-.768-.219.545.545,0,0,1,.226-.744,14.533,14.533,0,0,1,6.83-1.674,14.567,14.567,0,0,1,6.807,1.663.528.528,0,0,1,.237.733A.555.555,0,0,1,1075.722-67.3Zm-16.154,5.744a.6.6,0,0,1-.327-.1.535.535,0,0,1-.135-.766A11.572,11.572,0,0,1,1063.338-66a13.4,13.4,0,0,1,11.639-.011,11.617,11.617,0,0,1,4.233,3.556.536.536,0,0,1-.135.766.574.574,0,0,1-.79-.131,10.509,10.509,0,0,0-3.827-3.217,12.235,12.235,0,0,0-10.611.011,10.618,10.618,0,0,0-3.838,3.238A.5.5,0,0,1,1059.567-61.554Zm7.056,13.205a.538.538,0,0,1-.4-.164,11.1,11.1,0,0,1-2.269-2.888,9.473,9.473,0,0,1-1.185-4.748,6.167,6.167,0,0,1,6.39-5.9,6.167,6.167,0,0,1,6.389,5.9.551.551,0,0,1-.565.547.551.551,0,0,1-.564-.547,5.053,5.053,0,0,0-5.26-4.8,5.053,5.053,0,0,0-5.261,4.8,8.36,8.36,0,0,0,1.05,4.212,10.4,10.4,0,0,0,2.089,2.648.55.55,0,0,1,0,.777A.63.63,0,0,1,1066.623-48.349Zm8.094-2.024a6.22,6.22,0,0,1-3.5-.974,5.781,5.781,0,0,1-2.687-4.8.551.551,0,0,1,.565-.547.551.551,0,0,1,.564.547,4.67,4.67,0,0,0,2.19,3.895,5.066,5.066,0,0,0,2.867.777,7.694,7.694,0,0,0,1.174-.109.561.561,0,0,1,.655.449.547.547,0,0,1-.463.635A7.946,7.946,0,0,1,1074.717-50.373Zm-2.269,2.254a.682.682,0,0,1-.147-.022,8.882,8.882,0,0,1-4.2-2.3,7.861,7.861,0,0,1-2.45-5.711,3.358,3.358,0,0,1,3.477-3.217,3.358,3.358,0,0,1,3.477,3.217,2.244,2.244,0,0,0,2.348,2.122,2.244,2.244,0,0,0,2.348-2.122c0-4.125-3.669-7.472-8.184-7.472a8.275,8.275,0,0,0-7.462,4.409,6.857,6.857,0,0,0-.666,3.063,10.572,10.572,0,0,0,.756,3.95.529.529,0,0,1-.328.7.565.565,0,0,1-.722-.317,11.852,11.852,0,0,1-.824-4.332,8.007,8.007,0,0,1,.768-3.545,9.4,9.4,0,0,1,8.478-5.033c5.136,0,9.313,3.84,9.313,8.566a3.358,3.358,0,0,1-3.477,3.217,3.358,3.358,0,0,1-3.477-3.217,2.244,2.244,0,0,0-2.348-2.122,2.244,2.244,0,0,0-2.348,2.122,6.785,6.785,0,0,0,2.111,4.934,7.741,7.741,0,0,0,3.691,2.024.541.541,0,0,1,.4.667A.547.547,0,0,1,1072.448-48.119Z" transform="translate(-1056.655 71.563)"/>
  </g>
</svg>
